<svg xmlns="http://www.w3.org/2000/svg" version="1.1" xmlns:xlink="http://www.w3.org/1999/xlink" xmlns:svgjs="http://svgjs.dev/svgjs" viewBox="0 0 640 800"><defs><filter id="uuunion-blur" x="-100%" y="-100%" width="400%" height="400%" color-interpolation-filters="sRGB">
        <feGaussianBlur in="SourceGraphic" stdDeviation="7.5 0" result="blur"></feGaussianBlur>
        <feDropShadow stdDeviation="12.307692307692308" in="blur" dx="10" dy="10" flood-color="#ea62da" flood-opacity="0.25" x="0%" y="0%" width="100%" height="100%"></feDropShadow>
      </filter><filter id="uuunion-blur2" x="-100%" y="-100%" width="400%" height="400%" color-interpolation-filters="sRGB">
        <feGaussianBlur in="SourceGraphic" stdDeviation="7.5 0" result="blur"></feGaussianBlur>
        <feDropShadow stdDeviation="12.307692307692308" in="blur" dx="-10" dy="-10" flood-color="#ea62da" flood-opacity="0.25" x="0%" y="0%" width="100%" height="100%"></feDropShadow>
      </filter><linearGradient gradientTransform="rotate(0, 0.5, 0.5)" x1="50%" y1="0%" x2="50%" y2="100%" id="uuunion-grad"><stop stop-color="#472ce2" offset="10%"></stop><stop stop-color="#ea62da" offset="90%"></stop></linearGradient><linearGradient gradientTransform="rotate(135, 0.5, 0.5)" x1="50%" y1="0%" x2="50%" y2="100%" id="uuunion-grad2"><stop stop-color="#472ce2" offset="25%"></stop><stop stop-color="#ea62da" offset="100%"></stop></linearGradient><linearGradient gradientTransform="rotate(333, 0.5, 0.5)" x1="50%" y1="0%" x2="50%" y2="100%" id="uuunion-grad3"><stop stop-color="#472ce2" offset="0%"></stop><stop stop-color="#ea62da" offset="75%"></stop></linearGradient></defs><path d="M-65.36 -82.69Q-53.66 -79.63 -41.96 -76.61 -30.27 -74.01 -18.57 -72.15 -6.87 -71.26 4.81 -71.44 16.51 -72.67 28.21 -74.81 39.91 -77.59 51.6 -80.67 63.3 -83.66 75 -86.2 86.7 -87.97 98.39 -88.76 110.09 -88.48 121.79 -87.14 133.48 -84.93 145.18 -82.1 156.88 -79.02 168.58 -76.06 180.27 -73.58 191.97 -71.89 203.67 -71.21 215.37 -71.6 227.06 -73.03 238.76 -75.32 250.46 -78.19 262.16 -81.28 273.85 -84.21 285.55 -86.62 297.25 -88.21 308.94 -88.79 320.64 -88.29 332.34 -86.77 344.04 -84.41 355.73 -81.5 367.43 -78.41 379.13 -75.52 390.83 -73.17 402.52 -71.67 414.22 -71.2 425.92 -71.81 437.61 -73.42 449.31 -75.85 461.01 -78.79 472.71 -81.88 484.4 -84.73 496.1 -87.01 507.8 -88.41 519.5 -88.78 531.19 -88.07 542.89 -86.36 554.59 -83.86 566.29 -80.89 577.98 -77.81 589.68 -75 601.38 -72.8 613.07 -71.49 624.77 -71.23 636.47 -72.05 648.17 -73.85 659.86 -76.4 671.56 -79.4 683.26 -82.47 685.29 -67.54 688.42 -52.6 692.45 -37.66 697.15 -22.73 702.26 -7.79 707.46 7.14 712.46 22.07 716.97 37.01 720.72 51.95 723.5 66.88 725.15 81.82 725.56 96.76 724.71 111.69 722.66 126.63 719.52 141.57 715.48 156.5 710.76 171.44 705.66 186.38 700.45 201.31 695.46 216.25 690.96 231.19 687.22 246.12 684.45 261.06 682.83 276 682.44 290.93 683.3 305.87 685.37 320.81 688.52 335.74 692.58 350.68 697.3 365.62 702.41 380.55 707.61 395.49 712.6 410.42 717.09 425.36 720.82 440.3 723.57 455.23 725.18 470.17 725.55 485.11 724.67 500.04 722.58 514.98 719.41 529.92 715.34 544.85 710.62 559.79 705.5 574.73 700.3 589.66 695.32 604.6 690.83 619.54 687.12 634.47 684.39 649.41 682.8 664.35 682.45 679.28 683.35 694.22 685.45 709.16 688.63 724.09 692.71 739.03 697.45 753.97 702.56 768.9 707.76 783.84 712.75 798.78 717.22 813.71 720.92 828.65 723.63 843.59 725.2 858.52 725.54 873.46 713.23 881.56 700.91 889.46 688.6 896.2 676.28 900.94 663.97 903.1 651.65 902.41 639.34 898.95 627.02 893.16 614.71 885.75 602.4 877.63 590.08 869.79 577.77 863.22 565.45 858.71 553.14 856.83 540.82 857.81 528.51 861.51 516.19 867.5 503.88 875.03 491.57 883.17 479.25 890.92 466.94 897.32 454.62 901.58 442.31 903.19 429.99 901.94 417.68 897.98 405.36 891.8 393.05 884.17 380.73 876.02 368.42 868.37 356.11 862.14 343.79 858.12 331.48 856.8 319.16 858.33 306.85 862.54 294.53 868.89 282.22 876.62 269.9 884.76 257.59 892.32 245.28 898.35 232.96 902.12 220.65 903.17 208.33 901.36 196.02 896.91 183.7 890.38 171.39 882.57 159.07 874.44 146.76 867 134.44 861.16 122.13 857.64 109.82 856.87 97.5 858.96 85.19 863.64 72.87 870.34 60.56 878.23 48.24 886.33 35.93 893.66 23.61 899.3 11.3 902.56 -1 903.03 -13.32 900.67 -25.63 895.76 -37.95 888.91 -50.26 880.95 -62.58 872.88 -62.6 857.95 -62.7 843.02 -62.88 828.09 -63.13 813.16 -63.42 798.23 -63.75 783.3 -64.09 768.37 -64.43 753.44 -64.74 738.5 -65.01 723.57 -65.22 708.64 -65.35 693.71 -65.41 678.78 -65.39 663.85 -65.29 648.92 -65.11 633.99 -64.86 619.06 -64.57 604.12 -64.24 589.19 -63.9 574.26 -63.56 559.33 -63.25 544.4 -62.98 529.47 -62.77 514.54 -62.63 499.61 -62.58 484.68 -62.6 469.75 -62.71 454.81 -62.89 439.88 -63.13 424.95 -63.43 410.02 -63.76 395.09 -64.1 380.16 -64.44 365.23 -64.75 350.3 -65.01 335.37 -65.22 320.44 -65.36 305.5 -65.41 290.57 -65.39 275.64 -65.28 260.71 -65.1 245.78 -64.85 230.85 -64.56 215.92 -64.23 200.99 -63.89 186.06 -63.55 171.12 -63.24 156.19 -62.97 141.26 -62.77 126.33 -62.63 111.4 -62.58 96.47 -62.6 81.54 -62.71 66.61 -62.89 51.68 -63.14 36.75 -63.44 21.81 -63.77 6.88 -64.11 -8.04 -64.45 -22.97 -64.75 -37.9 -65.02 -52.83 -65.23 -67.76 -65.36 -82.69" fill="url(#uuunion-grad)"></path><path d="M-65.36 -82.69Q-65.23 -67.76 -65.02 -52.83 -64.75 -37.9 -64.45 -22.97 -64.11 -8.04 -63.77 6.88 -63.44 21.81 -63.14 36.75 -62.89 51.68 -62.71 66.61 -62.6 81.54 -62.58 96.47 -62.63 111.4 -62.77 126.33 -62.97 141.26 -63.24 156.19 -63.55 171.12 -63.89 186.06 -64.23 200.99 -64.56 215.92 -64.85 230.85 -65.1 245.78 -65.28 260.71 -65.39 275.64 -65.41 290.57 -65.36 305.5 -65.22 320.44 -65.01 335.37 -64.75 350.3 -64.44 365.23 -64.1 380.16 -63.76 395.09 -47.69 402.53 -31.62 409.42 -2.24 415.54 2.51 415.97 12.18 408.68 21.8 400.13 31.37 390.54 40.88 380.2 50.36 369.46 59.8 358.72 69.22 348.35 78.61 338.71 88 330.06 97.38 322.6 106.77 316.43 116.18 311.51 125.62 307.72 135.1 304.83 144.62 302.55 154.2 300.54 163.86 298.42 173.58 295.85 183.39 292.53 193.29 288.21 203.29 282.74 213.39 276.08 223.59 268.27 233.9 259.45 244.32 249.87 254.84 239.82 265.47 229.62 276.2 219.61 287.03 210.11 297.95 201.39 308.95 193.65 320.02 187 331.15 181.45 342.34 176.94 353.56 173.3 364.81 170.29 376.06 167.64 387.32 165.02 398.55 162.14 409.74 158.71 420.89 154.49 431.96 149.33 442.95 143.15 453.85 135.96 464.63 127.86 475.29 119.01 485.82 109.65 496.19 100.05 506.41 90.5 516.46 81.28 526.34 72.64 536.05 64.76 545.57 57.78 554.92 51.74 564.1 46.61 573.1 42.28 581.93 38.56 590.6 35.25 599.13 32.07 607.52 28.77 615.78 25.09 623.94 20.83 632 15.83 640 9.99 634.45 -7.76 629.35 -25.52 625.09 -43.29 622.01 -61.05 620.35 -78.81 620.24 -96.57 621.7 -114.34 624.61 -132.1 612.46 -132.69 600.3 -134.25 588.15 -136.56 575.99 -139.32 563.84 -142.18 551.69 -144.74 539.53 -146.68 527.38 -147.74 515.22 -147.78 503.07 -146.8 490.91 -144.92 478.76 -142.39 466.6 -139.54 454.45 -136.76 442.29 -134.4 430.14 -132.78 417.99 -132.11 405.83 -132.47 393.68 -133.83 381.52 -136 369.37 -138.7 357.21 -141.56 345.06 -144.22 332.9 -146.32 320.75 -147.59 308.6 -147.86 296.44 -147.1 284.29 -145.4 272.13 -142.98 259.98 -140.18 247.82 -137.35 235.67 -134.86 223.51 -133.06 211.36 -132.17 199.2 -132.3 187.05 -133.46 174.9 -135.47 162.74 -138.08 150.59 -140.94 138.43 -143.67 126.28 -145.93 114.12 -147.4 101.97 -147.89 89.81 -147.35 77.66 -145.84 65.5 -143.56 53.35 -140.81 41.2 -137.95 29.04 -135.36 16.89 -133.38 4.73 -132.28 -7.41 -132.18 -19.57 -133.12 -31.72 -134.96 -43.88 -137.47 -56.03 -140.31 -68.18 -143.1 -80.34 -145.49 -92.49 -147.15 -104.65 -147.87 -116.8 -147.56 -128.96 -146.25 -130.92 -132.68 -109.23 -118.33 -98.28 -110.66 -87.32 -102.08 -76.36 -92.7 -65.36 -82.69" fill="url(#uuunion-grad2)" filter="url(#uuunion-blur)"></path><path d="M643.33 415.99Q659.4 414.44 675.47 409.75 691.54 402.94 707.61 395.49 712.6 410.42 717.09 425.36 720.82 440.3 723.57 455.23 725.18 470.17 725.55 485.11 724.67 500.04 722.58 514.98 719.41 529.92 715.34 544.85 710.62 559.79 705.5 574.73 700.3 589.66 695.32 604.6 690.83 619.54 687.12 634.47 684.39 649.41 682.8 664.35 682.45 679.28 683.35 694.22 685.45 709.16 688.63 724.09 692.71 739.03 697.45 753.97 702.56 768.9 707.76 783.84 712.75 798.78 717.22 813.71 720.92 828.65 723.63 843.59 725.2 858.52 725.54 873.46 714.24 880.89 702.93 888.22 691.63 894.7 680.32 899.65 669.02 902.55 657.71 903.11 646.41 901.26 635.11 897.2 623.8 891.35 612.5 884.31 601.19 876.83 589.89 869.68 578.58 863.6 567.28 859.23 555.98 857.02 544.67 857.19 533.37 859.75 522.06 864.4 510.76 870.69 499.45 877.93 488.15 885.4 476.85 892.3 465.54 897.92 454.24 901.68 442.93 903.18 431.63 902.26 420.32 899.03 409.02 893.82 397.72 887.17 386.41 879.78 375.11 872.4 363.8 865.82 352.5 860.71 341.19 857.61 329.89 856.83 318.58 858.47 307.28 862.35 295.98 868.06 284.67 875.02 273.37 882.49 262.06 889.7 250.76 895.9 239.45 900.45 228.15 902.87 216.85 902.91 205.54 900.56 194.24 896.08 182.93 889.92 171.63 882.73 160.32 875.25 149.02 868.27 137.72 862.51 126.41 858.56 115.11 856.85 103.8 857.55 92.5 860.58 81.19 865.63 69.89 872.18 58.59 879.54 47.28 886.95 35.98 893.63 24.67 898.9 7.71 897.62 1.96 882.89 1.79 872.74 1.55 862.59 1.24 852.44 0.88 842.29 0.49 827.06 1.02 822 13.3 814.19 25.5 803.67 37.64 791.04 49.7 777.16 61.71 763.06 73.65 749.78 85.55 738.25 97.4 729.17 109.23 722.88 121.03 719.37 132.81 718.25 144.6 718.81 156.4 720.14 168.23 721.21 180.09 721.05 192.01 718.87 203.98 714.14 216.03 706.68 228.16 696.68 240.39 684.66 252.72 671.41 265.17 657.87 277.73 645.01 290.43 633.71 303.25 624.62 316.2 618.11 329.28 614.18 342.5 612.49 355.85 612.43 369.32 613.14 382.9 613.71 396.6 613.21 410.39 610.9 424.27 606.27 438.22 599.12 452.23 589.61 466.29 578.18 480.37 565.55 494.45 552.58 508.53 540.17 522.57 529.12 536.57 520.07 550.49 513.37 564.33 509.05 578.06 506.83 591.67 506.15 605.13 506.26 618.43 506.3 631.56 505.43 644.5 502.95 657.25 498.38 669.78 491.51 682.11 482.45 694.22 471.6 706.1 459.59 717.77 447.2 729.22 435.25 740.45 424.49 751.49 415.51 762.32 408.66 772.98 403.98 783.47 401.25 783.9 392.37 763.86 385.03 753.81 384.03 743.77 384.4 733.73 386.11 723.68 389.02 713.64 392.86 703.59 397.32 693.55 402.01 683.51 406.52 673.46 410.48 663.42 413.53 653.37 415.42 643.33 415.99" fill="url(#uuunion-grad3)" filter="url(#uuunion-blur2)"></path></svg>